<svg xmlns="http://www.w3.org/2000/svg" xmlns:xlink="http://www.w3.org/1999/xlink" width="48" zoomAndPan="magnify" viewBox="0 0 36 36.000001" height="48" preserveAspectRatio="xMidYMid meet" version="1.0"><defs><g/><clipPath id="df163545c7"><path d="M 0.488281 0 L 35.511719 0 L 35.511719 35 L 0.488281 35 Z M 0.488281 0 " clip-rule="nonzero"/></clipPath><clipPath id="8f84852fd9"><path d="M 18 35.027344 C 13.324219 35.027344 8.921875 33.207031 5.617188 29.894531 C 2.304688 26.59375 0.488281 22.1875 0.488281 17.511719 C 0.488281 12.835938 2.304688 8.433594 5.617188 5.132812 C 8.921875 1.820312 13.324219 0 18 0 C 22.675781 0 27.078125 1.820312 30.382812 5.132812 C 33.695312 8.441406 35.511719 12.835938 35.511719 17.511719 C 35.511719 22.1875 33.695312 26.59375 30.382812 29.894531 C 27.078125 33.207031 22.675781 35.027344 18 35.027344 M 18 1.050781 C 13.605469 1.050781 9.46875 2.765625 6.359375 5.871094 C 3.25 8.980469 1.535156 13.117188 1.535156 17.511719 C 1.535156 21.910156 3.25 26.046875 6.359375 29.152344 C 9.46875 32.261719 13.605469 33.976562 18 33.976562 C 22.394531 33.976562 26.53125 32.261719 29.640625 29.152344 C 32.75 26.046875 34.464844 21.910156 34.464844 17.511719 C 34.464844 13.117188 32.75 8.980469 29.640625 5.871094 C 26.53125 2.765625 22.394531 1.050781 18 1.050781 " clip-rule="nonzero"/></clipPath></defs><g clip-path="url(#df163545c7)"><g clip-path="url(#8f84852fd9)"><path fill="#ffffff" d="M 0.488281 0 L 35.484375 0 L 35.484375 35 L 0.488281 35 Z M 0.488281 0 " fill-opacity="1" fill-rule="nonzero"/></g></g><g fill="#ffffff" fill-opacity="1"><g transform="translate(8.914495, 20.715189)"><g><path d="M 1.710938 -1.75 L 4.515625 -1.75 L 5.179688 0 L 6.246094 0 L 3.46875 -7.007812 L 2.738281 -7.007812 L -0.0390625 0 L 1.039062 0 Z M 4.152344 -2.6875 L 2.074219 -2.6875 L 3.113281 -5.417969 Z M 4.152344 -2.6875 "/></g></g></g><g fill="#ffffff" fill-opacity="1"><g transform="translate(20.823481, 20.684105)"><g><path d="M 1.839844 0 L 1.839844 -6.917969 L 0.851562 -6.917969 L 0.851562 0 Z M 4.4375 -6.917969 L 2.027344 -3.707031 L 2.027344 -3.203125 L 4.664062 0 L 5.949219 0 L 3.035156 -3.480469 L 5.675781 -6.917969 Z M 4.4375 -6.917969 "/></g></g></g><path stroke-linecap="butt" transform="matrix(0.000000000000000044, -0.713381, 0.72973, 0.000000000000000045, 17.630919, 23.11191)" fill="none" stroke-linejoin="miter" d="M -0.00192173 0.500424 L 15.357368 0.500424 " stroke="#ffffff" stroke-width="1" stroke-opacity="1" stroke-miterlimit="4"/></svg>